HIERARCHY
ROOT Hips
{
    OFFSET 0.000000 0.000000 0.000000
    CHANNELS 6 Xposition Yposition Zposition Zrotation Xrotation Yrotation
    JOINT Spine
    {
        OFFSET -0.000000 14.517291 0.000000
        CHANNELS 3 Zrotation Xrotation Yrotation
        JOINT Spine1
        {
            OFFSET -0.000000 37.558300 0.000000
            CHANNELS 3 Zrotation Xrotation Yrotation
            JOINT Neck
            {
                OFFSET -0.000000 37.404057 3.400369
                CHANNELS 3 Zrotation Xrotation Yrotation
                JOINT Head
                {
                    OFFSET -0.000000 24.785618 -3.540803
                    CHANNELS 3 Zrotation Xrotation Yrotation
                    End Site
                    {
                        OFFSET -0.000000 35.408028 0.000000
                    }
                }
            }
            JOINT LeftShoulder
            {
                OFFSET 6.992933 33.973492 -0.192664
                CHANNELS 3 Zrotation Xrotation Yrotation
                JOINT LeftArm
                {
                    OFFSET 21.527611 0.000000 0.000000
                    CHANNELS 3 Zrotation Xrotation Yrotation
                    JOINT LeftForeArm
                    {
                        OFFSET 56.353916 0.000000 0.000000
                        CHANNELS 3 Zrotation Xrotation Yrotation
                        JOINT LeftHand
                        {
                            OFFSET 47.774071 0.000000 0.000000
                            CHANNELS 3 Zrotation Xrotation Yrotation
                            End Site
                            {
                                OFFSET 26.556021 0.000000 0.000000
                            }
                        }
                    }
                }
            }
            JOINT RightShoulder
            {
                OFFSET -7.065357 33.973492 -0.192664
                CHANNELS 3 Zrotation Xrotation Yrotation
                JOINT RightArm
                {
                    OFFSET -21.527611 0.000000 0.000000
                    CHANNELS 3 Zrotation Xrotation Yrotation
                    JOINT RightForeArm
                    {
                        OFFSET -56.353916 0.000000 0.000000
                        CHANNELS 3 Zrotation Xrotation Yrotation
                        JOINT RightHand
                        {
                            OFFSET -47.774071 0.000000 0.000000
                            CHANNELS 3 Zrotation Xrotation Yrotation
                            End Site
                            {
                                OFFSET -26.556021 0.000000 0.000000
                            }
                        }
                    }
                }
            }
        }
    }
    JOINT LeftUpLeg
    {
        OFFSET 17.704014 0.000000 0.000000
        CHANNELS 3 Zrotation Xrotation Yrotation
        JOINT LeftLeg
        {
            OFFSET -0.000000 -81.181816 0.000000
            CHANNELS 3 Zrotation Xrotation Yrotation
            JOINT LeftFoot
            {
                OFFSET -0.000000 -62.821102 0.000000
                CHANNELS 3 Zrotation Xrotation Yrotation
                JOINT LeftToeBase
                {
                    OFFSET -0.000000 -11.507608 26.556021
                    CHANNELS 3 Zrotation Xrotation Yrotation
                    End Site
                    {
                        OFFSET -0.000000 0.000000 7.081605
                    }
                }
            }
        }
    }
    JOINT RightUpLeg
    {
        OFFSET -17.704014 0.000000 0.000000
        CHANNELS 3 Zrotation Xrotation Yrotation
        JOINT RightLeg
        {
            OFFSET -0.000000 -81.181816 0.000000
            CHANNELS 3 Zrotation Xrotation Yrotation
            JOINT RightFoot
            {
                OFFSET -0.000000 -62.821102 0.000000
                CHANNELS 3 Zrotation Xrotation Yrotation
                JOINT RightToeBase
                {
                    OFFSET -0.000000 -11.507608 26.556021
                    CHANNELS 3 Zrotation Xrotation Yrotation
                    End Site
                    {
                        OFFSET -0.000000 0.000000 7.081605
                    }
                }
            }
        }
    }
}
MOTION
Frames:    9
Frame Time:    0.008333
17.099676    156.457214    -120.688522    -2.917710    -7.282979    36.868561    0.519380    -0.542576    0.668406    -6.030344    3.577131    0.410423    5.428495    3.009560    -18.455336    14.587180    1.115948    -18.022478    6.803376    8.289017    -17.920443    -35.537354    22.004206    -48.809982    -6.596828    -10.491877    -117.210304    1.060048    -20.973711    -5.961400    -14.487081    -3.734946    -6.767005    17.196943    -21.117947    46.477829    -14.105977    -17.119368    48.311543    5.617692    -9.348472    32.215656    10.073654    -7.756554    -10.303498    -17.391680    41.196495    -17.721924    15.507638    -24.090563    51.739449    0.000000    0.000000    0.000000    -18.326855    -20.575104    -3.387089    5.587479    14.009132    -12.752934    9.356143    25.988342    -14.450821    0.000000    0.000000    0.000000    
16.834553    156.425537    -120.349121    -2.875274    -7.211794    36.735794    0.519358    -0.594565    0.725715    -6.128326    3.607138    0.433985    5.453145    2.940683    -18.433434    14.573710    1.199527    -18.018198    6.821680    8.296524    -17.856806    -35.608383    22.003870    -48.812031    -6.633488    -10.349180    -117.220390    1.079805    -20.897900    -5.965925    -14.429594    -3.708626    -6.747583    17.218430    -21.204632    46.548733    -13.964517    -17.293196    48.712433    5.638383    -9.636231    30.134899    10.160805    -7.706496    -10.057014    -17.279942    41.248554    -17.882425    15.447460    -24.179714    51.747635    0.000000    0.000000    0.000000    -18.345146    -20.467283    -3.551875    5.555525    13.872467    -12.818707    9.582818    26.261200    -14.667751    0.000000    0.000000    0.000000    
16.560341    156.410187    -119.988297    -2.832361    -7.144811    36.628830    0.468452    -0.640045    0.752064    -6.092343    3.594857    0.440963    5.350272    2.973941    -18.396940    14.647261    1.231459    -17.960251    6.737610    8.307551    -17.820614    -35.663406    22.027000    -48.751030    -6.650982    -10.260971    -117.244324    1.084891    -20.846443    -5.987116    -14.520679    -3.734172    -6.748773    17.283041    -21.119217    46.636253    -14.165179    -17.089888    48.231976    5.640628    -9.291894    32.300362    10.257117    -7.590106    -10.068546    -17.159744    41.131580    -18.139484    15.364199    -24.294926    51.824875    0.000000    0.000000    0.000000    -18.344320    -20.358463    -3.744955    5.504854    13.747324    -12.858886    9.951956    26.560156    -14.924312    0.000000    0.000000    0.000000    
16.286581    156.386429    -119.610283    -2.797385    -7.062297    36.501392    0.460323    -0.709271    0.802823    -6.155158    3.615094    0.460984    5.385519    2.872240    -18.367382    14.541235    1.345587    -17.966316    6.728651    8.297597    -17.796051    -35.725788    22.091354    -48.713249    -6.630947    -10.247670    -117.289375    1.075279    -20.811230    -5.956620    -14.645364    -3.740452    -6.672816    17.466322    -21.188604    46.596725    -14.143095    -17.012621    48.314751    5.639730    -9.212991    32.247852    10.352575    -7.496087    -10.016254    -17.178068    41.027905    -18.037846    15.318382    -24.379831    51.796761    0.000000    0.000000    0.000000    -18.330765    -20.266642    -3.847514    5.454002    13.596594    -12.860917    10.427530    26.890800    -15.141623    0.000000    0.000000    0.000000    
15.996134    156.369019    -119.225021    -2.769912    -6.962757    36.372131    0.445190    -0.756834    0.846814    -6.233495    3.569565    0.475490    5.451872    2.826313    -18.343971    14.450810    1.414195    -17.972179    6.767241    8.358704    -17.721563    -35.798260    22.081648    -48.756897    -6.655891    -10.146879    -117.308372    1.077933    -20.758081    -5.941852    -14.512810    -3.726086    -6.677414    17.237463    -21.048431    46.689064    -14.163047    -17.410994    48.556004    5.686569    -9.673646    30.217943    10.452109    -7.431099    -9.972463    -17.202393    40.940937    -17.973562    15.280562    -24.425816    51.804127    0.000000    0.000000    0.000000    -18.297480    -20.213797    -3.941764    5.390430    13.466637    -12.811296    11.066916    27.226395    -15.401667    0.000000    0.000000    0.000000    
15.715853    156.348831    -118.810394    -2.732669    -6.875487    36.264957    0.429265    -0.809693    0.880441    -6.251344    3.555017    0.486441    5.414529    2.792105    -18.300318    14.401380    1.447472    -17.933640    6.695005    8.315845    -17.700417    -35.878456    22.109812    -48.658707    -6.686586    -10.035364    -117.373680    1.043333    -20.711420    -5.933109    -14.674172    -3.701393    -6.650010    17.422787    -21.101933    46.711864    -14.304566    -17.122700    48.199211    5.654479    -9.263422    32.313194    10.556663    -7.341236    -9.989326    -17.262705    40.842297    -17.890238    15.280455    -24.475229    51.820980    0.000000    0.000000    0.000000    -18.251871    -20.137892    -4.035947    5.317602    13.339826    -12.751839    11.657756    27.589993    -15.486732    0.000000    0.000000    0.000000    
15.432241    156.332489    -118.384979    -2.687002    -6.774554    36.149158    0.396490    -0.869459    0.923565    -6.294004    3.552763    0.502060    5.457510    2.701251    -18.263966    14.304824    1.495895    -17.923349    6.687648    8.296113    -17.654837    -35.933376    22.142996    -48.652229    -6.693927    -9.974274    -117.418037    1.104763    -20.676544    -5.887009    -14.608567    -3.744637    -6.667156    17.296358    -21.047873    46.791527    -14.320412    -17.195143    48.141117    5.705611    -9.328724    32.246117    10.616811    -7.250448    -9.918548    -17.178869    40.777390    -17.958809    15.264816    -24.526112    51.879250    0.000000    0.000000    0.000000    -18.217531    -20.064466    -4.012876    5.303691    13.192824    -12.680613    12.372556    27.939482    -15.589888    0.000000    0.000000    0.000000    
15.150455    156.310318    -117.933609    -2.648752    -6.670700    36.039063    0.389017    -0.950725    0.968822    -6.353817    3.557743    0.519185    5.424783    2.616552    -18.240341    14.276011    1.593650    -17.914286    6.687175    8.319895    -17.629292    -35.955544    22.161701    -48.657619    -6.676137    -9.984952    -117.461853    1.023121    -20.664021    -5.915378    -14.650337    -3.753157    -6.628313    17.324572    -21.110987    46.813614    -14.331629    -17.103786    48.098713    5.637228    -9.253791    32.272884    10.724659    -7.150578    -9.927064    -17.245363    40.655914    -17.930738    15.307891    -24.553617    51.940979    0.000000    0.000000    0.000000    -18.155066    -20.005697    -4.057111    5.237041    13.061909    -12.593670    13.263694    28.378830    -15.706881    0.000000    0.000000    0.000000    
14.836261    156.282623    -117.464737    -2.639449    -6.549713    35.941010    0.367151    -1.020472    0.999501    -6.385934    3.496934    0.526915    5.400144    2.576070    -18.219059    14.251342    1.645500    -17.900244    6.676728    8.327245    -17.606792    -36.003040    22.177309    -48.633369    -6.654980    -9.968441    -117.492493    0.949069    -20.618607    -5.991682    -14.658898    -3.741334    -6.617749    17.277344    -21.103180    46.876415    -14.199040    -17.383553    48.449680    5.675161    -9.648082    30.212843    10.860039    -7.096678    -9.918283    -17.300623    40.558655    -17.861689    15.277475    -24.624578    51.937469    0.000000    0.000000    0.000000    -18.071430    -19.984015    -4.018312    5.215055    12.954165    -12.492075    14.329331    28.808802    -15.986012    0.000000    0.000000    0.000000    
